pedal_clip_forces_x_-0.09_y_-0.04.mot
version=1
nRows=188
nColumns=4
inDegrees=yes
endheader
time	PedalClip_calcn_r_Fx	PedalClip_calcn_r_Fy	PedalClip_calcn_r_Fz
0.22538234	-248.525022031745	420.082326338612	0
0.22552045	-249.132502730635	421.274830631048	0
0.22565193	-249.741010656106	422.469988631892	0
0.22579166	-250.350551411861	423.667812645969	0
0.22592276	-250.961133277416	424.868319986084	0
0.22605938	-251.572762876652	426.071524913031	0
0.22619065	-252.185449779861	427.277447226362	0
0.22633027	-252.799202088699	428.486103945812	0
0.2264612	-253.414029882686	429.69751584303	0
0.22659864	-254.02994054549	430.911698680271	0
0.22672983	-254.646943279963	432.12867168342	0
0.2268691	-255.265044536548	433.348448875466	0
0.22699987	-255.88425144732	434.571045612439	0
0.22713642	-256.504567235217	435.796469923501	0
0.22726745	-257.125995719333	437.024730999328	0
0.22740655	-257.74853700947	438.255830991243	0
0.22753717	-258.372191053027	439.48977177967	0
0.2276741	-258.996953389753	440.726546932659	0
0.22780504	-259.622819766101	441.966150425956	0
0.22794386	-260.249782104072	443.208568940872	0
0.22807433	-260.877832208343	444.453788948387	0
0.22821084	-261.506957753373	445.701789086243	0
0.22834165	-262.137146960358	446.952549024411	0
0.22848027	-262.768384728407	448.206042059827	0
0.22861061	-263.400656404362	449.462242337217	0
0.22874718	-264.033943903893	450.721117468915	0
0.22887788	-264.668230493627	451.982637619293	0
0.22901626	-265.303496851133	453.246767958883	0
0.22914647	-265.939724985308	454.51347617384	0
0.22928292	-266.576894189882	455.78272475121	0
0.2294135	-267.214985825229	457.054480084198	0
0.22955168	-267.853979296636	458.328704760031	0
0.22968176	-268.493855922647	459.60536498795	0
0.22981816	-269.134594950342	460.884422997613	0
0.22994864	-269.776178522964	462.165846505582	0
0.23008661	-270.418587467561	463.449600639043	0
0.23021657	-271.061805427402	464.735655853161	0
0.23035293	-271.70581452243	466.023979635857	0
0.23048331	-272.350600129411	467.314545639197	0
0.23062107	-272.996146629944	468.607325512693	0
0.23075092	-273.64244125237	469.902296296948	0
0.23088726	-274.28946997695	471.199432600435	0
0.23101753	-274.937222599468	472.498716277044	0
0.23115509	-275.585688274763	473.800127872488	0
0.23128485	-276.234859786994	475.103654815341	0
0.23142116	-276.884728918717	476.409282548139	0
0.23155133	-277.535291066213	477.717003377062	0
0.23168869	-278.18654085391	479.026808028492	0
0.23181836	-278.838475947822	480.33869300794	0
0.23195467	-279.491092889398	481.652652624926	0
0.23208474	-280.144392119049	482.968688629753	0
0.23222189	-280.798373520948	484.286801635614	0
0.23235149	-281.453040755681	485.606999455886	0
0.23248778	-282.108396592153	486.929288143969	0
0.23261775	-282.764447555158	488.253680933127	0
0.23275469	-283.421199583707	489.580189844252	0
0.23288425	-284.078662042982	490.908833444233	0
0.2330205	-284.73684340462	492.239628554948	0
0.23315037	-285.395756144147	493.572599682544	0
0.2332871	-286.055412302102	494.907770433578	0
0.23341661	-286.715827739769	496.24517174168	0
0.23355282	-287.377017377518	497.584832709493	0
0.23368258	-288.038999815714	498.926789524497	0
0.23381908	-288.701792933569	500.271076920311	0
0.23394857	-289.365417938243	501.617736033543	0
0.23408469	-290.029894763159	502.966805551969	0
0.23421436	-290.695246695405	504.31833064908	0
0.23435063	-291.361495942896	505.672354379906	0
0.2344801	-292.028667706265	507.028925585316	0
0.2346161	-292.696785352499	508.388089594722	0
0.23474568	-293.365874839838	509.749896779106	0
0.23488171	-294.035960370843	511.114394099777	0
0.23501118	-294.707068327031	512.481632763647	0
0.23514702	-295.379222564577	513.851659163072	0
0.23527653	-296.052448708644	515.224523176082	0
0.23541233	-296.726769898116	516.600269899027	0
0.23554179	-297.402210633868	517.978947134929	0
0.23567744	-298.078792096772	519.360596378029	0
0.23580691	-298.756536305572	520.745260847865	0
0.23594249	-299.435461969593	522.132977435412	0
0.23607194	-300.115588287175	523.523784090818	0
0.23620739	-300.796930363542	524.917710999696	0
0.23633684	-301.479503378272	526.314788623922	0
0.2364722	-302.163318547016	527.715039854765	0
0.23660164	-302.848387062454	529.118487660068	0
0.23673688	-303.534715632477	530.525146474074	0
0.23686633	-304.222310917524	531.935030751197	0
0.23700146	-304.911175624652	533.348147352235	0
0.23713091	-305.601312842898	534.76450394764	0
0.23726594	-306.292721712668	536.184100625678	0
0.23739539	-306.985402320227	537.606939351132	0
0.23753031	-307.679351834897	539.033016403954	0
0.23765977	-308.374569264904	540.4623316291	0
0.23779457	-309.071051065376	541.89487988518	0
0.23792405	-309.768796260093	543.330661015952	0
0.23805874	-310.467802257065	544.769671634276	0
0.23818823	-311.168069524227	546.211914295096	0
0.23832281	-311.869596671064	547.657387866546	0
0.23845232	-312.572385128205	549.106096738354	0
0.23858678	-313.276434542485	550.558041737201	0
0.23871631	-313.98174718595	552.01322882808	0
0.23885065	-314.688323164577	553.471659686116	0
0.23898021	-315.396164980838	554.933340688734	0
0.23911444	-316.105273111616	556.398274185025	0
0.23924403	-316.815650375035	557.866467104775	0
0.23937813	-317.5272973215	559.337921897952	0
0.23950775	-318.240216707274	560.812645334011	0
0.23964173	-318.95440917355	562.290639993019	0
0.23977139	-319.669877569831	563.771912766179	0
0.23990524	-320.38662246957	565.256466062438	0
0.24003495	-321.104646560566	566.744306421665	0
0.24016867	-321.823950391785	568.235436162518	0
0.24029842	-322.544536644458	569.729861759494	0
0.24043201	-323.266405757701	571.22758528058	0
0.24056181	-323.989560234307	572.728612819572	0
0.24069526	-324.714000439263	574.232946259693	0
0.24082511	-325.43972881556	575.740591531422	0
0.24095844	-326.166745606967	577.251550243697	0
0.24108834	-326.895053086356	578.765827961099	0
0.24122153	-327.624651394551	580.283426049621	0
0.24135149	-328.355542705815	581.80434983626	0
0.24148454	-329.087727031028	583.328600390665	0
0.24161455	-329.821206380948	584.856182681499	0
0.24174746	-330.555980641088	586.387097486868	0
0.24187754	-331.292051691996	587.921349474117	0
0.24201031	-332.029419278708	589.458939098306	0
0.24214044	-332.768085118197	590.999870661859	0
0.24227307	-333.50804881423	592.54414429209	0
0.24240327	-334.249311932125	594.091763944814	0
0.24253575	-334.991873928007	595.642729405238	0
0.24266601	-335.735736202306	597.19704425629	0
0.24279836	-336.480898064011	598.754707940132	0
0.24292867	-337.227360753669	600.315723673816	0
0.24306088	-337.975123433951	601.88009055679	0
0.24319125	-338.72418718432	603.447811437009	0
0.24332331	-339.474551025667	605.018885079099	0
0.24345374	-340.226215881984	606.59331397148	0
0.24358567	-340.979180638487	608.171096555283	0
0.24371615	-341.733446069075	609.752234969239	0
0.24384794	-342.489010931252	611.336727346177	0
0.24397847	-343.245875856517	612.92457548958	0
0.24411012	-344.004039483542	614.515777241197	0
0.2442407	-344.763502309541	616.110334084839	0
0.24437222	-345.524262863786	617.708243589629	0
0.24450284	-346.286321517826	619.309506936391	0
0.24463423	-347.049676701095	620.914121440438	0
0.24476488	-347.814328668059	622.522087996375	0
0.24489614	-348.580275757803	624.133403684443	0
0.24502684	-349.347518116135	625.748069129559	0
0.24515797	-350.116054001054	627.366081195221	0
0.2452887	-350.885883457794	628.987440252563	0
0.24541971	-351.657004672178	630.612142966019	0
0.24555046	-352.429417596493	632.240189467971	0
0.24568135	-353.203120352817	633.871576240529	0
0.24581212	-353.978112807537	635.506303191204	0
0.2459429	-354.754393026845	637.144366635395	0
0.24607369	-355.531960797594	638.785766268289	0
0.24620435	-356.310814137297	640.430498252902	0
0.24633515	-357.090952758915	642.078562083168	0
0.2464657	-357.872374637795	643.729953782689	0
0.24659651	-358.655079417906	645.384672653732	0
0.24672696	-359.439065038258	647.042714592054	0
0.24685777	-360.22433107803	648.704078716444	0
0.24698811	-361.010875445074	650.368760805107	0
0.24711892	-361.798697657366	652.036759800299	0
0.24724916	-362.587795596245	653.708071371889	0
0.24737997	-363.378168721626	655.382694291645	0
0.24751011	-364.169814892586	657.060624129537	0
0.24764091	-364.962733513893	658.74185949246	0
0.24777096	-365.756922426473	660.426395858652	0
0.24790175	-366.552380982958	662.114231675997	0
0.2480317	-367.349107010395	663.80536233954	0
0.24816248	-368.147099812848	665.499786145164	0
0.24829234	-368.946357208358	667.1974984146	0
0.24842309	-369.746878457097	668.898497301142	0
0.24855287	-370.548661374192	670.60277806567	0
0.2486836	-371.351705182474	672.310338732327	0
0.24881329	-372.15600770225	674.021174517923	0
0.248944	-372.961568128416	675.735283337007	0
0.2490736	-373.768384297595	677.452660385678	0
0.24920428	-374.576455390216	679.173303497201	0
0.24933381	-375.385779274685	680.897207879681	0
0.24946446	-376.196355135949	682.624371325322	0
0.24959391	-377.008180895522	684.35478909965	0
0.24972453	-377.821255768998	686.088459009461	0
0.2498539	-378.63557775986	687.825376439498	0
0.24998448	-379.45114614928	689.56553928589	0
0.25011379	-380.26795906082	691.308943134445	0
